<svg width="31" height="33" viewBox="0 0 31 33" fill="none" xmlns="http://www.w3.org/2000/svg">
<g clip-path="url(#clip0_158_18671)">
<path d="M29.464 5.23348H25.973V1.59912C25.973 0.712335 25.2887 0 24.4369 0C23.5851 0 22.9009 0.712335 22.9009 1.59912V5.23348H19.4099C18.5581 5.23348 17.8739 5.94582 17.8739 6.8326C17.8739 7.71938 18.5581 8.43172 19.4099 8.43172H22.9009V12.0661C22.9009 12.9529 23.5851 13.6652 24.4369 13.6652C25.2887 13.6652 25.973 12.9529 25.973 12.0661V8.43172H29.464C30.3158 8.43172 31 7.71938 31 6.8326C31 5.94582 30.3158 5.23348 29.464 5.23348Z" fill="white"/>
<path d="M24.4369 15.1189C22.8171 15.1189 21.5045 13.7524 21.5045 12.0661V9.88547H19.4099C17.7901 9.88547 16.4775 8.51895 16.4775 6.8326C16.4775 6.30926 16.6032 5.81498 16.8266 5.37886H3.71441C1.66171 5.37886 0 7.10882 0 9.24582V29.1185C0 31.2701 1.66171 33 3.71441 33H22.8032C24.8559 33 26.5176 31.27 26.5176 29.133V14.2031C26.0009 14.77 25.2608 15.1189 24.4369 15.1189ZM22.3005 29.3656H5.39009C4.88739 29.3656 4.58018 28.7696 4.87342 28.3335L8.28063 23.1727C8.53198 22.7947 9.07658 22.7947 9.32793 23.1727L12.1486 27.185L16.5473 21.341C16.7986 20.9921 17.3014 20.9921 17.5527 21.3264L22.8032 28.3044C23.1243 28.7405 22.8311 29.3656 22.3005 29.3656Z" fill="white"/>
</g>
<defs>
<clipPath id="clip0_158_18671">
<rect width="31" height="33" fill="white"/>
</clipPath>
</defs>
</svg>
