<svg width="11" height="11" viewBox="0 0 11 11" fill="none" xmlns="http://www.w3.org/2000/svg">
<path d="M10.1575 7.89606L7.68902 5.42756L10.2589 2.85768C10.886 2.23062 10.9058 1.2431 10.3035 0.640786C9.70119 0.0384713 8.71367 0.0583414 8.08662 0.685392L5.51674 3.25527L3.04823 0.786771C2.44592 0.184456 1.45839 0.204326 0.831343 0.831377C0.204292 1.45843 0.184422 2.44595 0.786736 3.04827L3.25524 5.51677L0.685358 8.08665C0.0583071 8.7137 0.038437 9.70123 0.640752 10.3035C1.24307 10.9059 2.23059 10.886 2.85764 10.2589L5.42752 7.68905L7.89603 10.1576C8.49834 10.7599 9.48586 10.74 10.1129 10.1129C10.74 9.4859 10.7598 8.49837 10.1575 7.89606Z" fill="white"/>
</svg>
