<svg width="23" height="20" viewBox="0 0 23 20" fill="none" xmlns="http://www.w3.org/2000/svg">
<path d="M16.7528 1.00005C14.0469 0.989023 11.8162 2.93238 11.5019 5.44149C11.1876 2.93238 8.95311 0.989023 6.25099 1.00005C3.36489 1.01107 1.01156 3.27036 1.00006 6.03294C0.996229 6.79706 1.17254 7.5171 1.48299 8.16733C1.60948 8.43183 1.76279 8.68899 1.93526 8.92778C4.25027 12.7043 7.26668 16.0363 10.8082 18.7658C11.2106 19.0781 11.7894 19.0781 12.1918 18.7658C15.7333 16.0363 18.7497 12.7006 21.0647 8.92778C21.2372 8.68899 21.3905 8.43551 21.517 8.16733C21.8313 7.5171 22.0038 6.79706 21.9999 6.03294C21.9923 3.27036 19.6389 1.01107 16.7528 1.00005Z" fill="white" stroke="white" stroke-width="2" stroke-miterlimit="5.44384" stroke-linejoin="round"/>
</svg>
