<svg width="31" height="28" viewBox="0 0 31 28" fill="none" xmlns="http://www.w3.org/2000/svg">
<path d="M22.2537 2.00006C18.7746 1.98537 15.9065 4.57651 15.5025 7.92198C15.0984 4.57651 12.2254 1.98537 8.75127 2.00006C5.04058 2.01476 2.01486 5.02715 2.00008 8.71059C1.99515 9.72942 2.22183 10.6895 2.62099 11.5564C2.78361 11.9091 2.98073 12.252 3.20248 12.5704C6.17892 17.6057 10.0572 22.0484 14.6105 25.6877C15.1279 26.1041 15.8721 26.1041 16.3895 25.6877C20.9428 22.0484 24.8211 17.6008 27.7975 12.5704C28.0193 12.252 28.2164 11.914 28.379 11.5564C28.7831 10.6895 29.0048 9.72942 28.9999 8.71059C28.9901 5.02715 25.9643 2.01476 22.2537 2.00006Z" fill="black" stroke="black" stroke-width="3" stroke-miterlimit="5.44384" stroke-linejoin="round"/>
</svg>
