<svg width="24" height="30" viewBox="0 0 24 30" fill="none" xmlns="http://www.w3.org/2000/svg">
<circle cx="11.6747" cy="7.09467" r="5.59467" fill="black" stroke="black" stroke-width="3"/>
<path fill-rule="evenodd" clip-rule="evenodd" d="M18.7586 28.3097V28.3097C18.7586 28.3098 18.7587 28.3099 18.7588 28.3099H21.7583C21.7585 28.3099 21.7586 28.3098 21.7586 28.3097V28.3097C21.7586 22.0982 17.3697 17.0583 11.9428 17.0193H11.8158C6.38885 17.0583 2 22.0982 2 28.3097V28.3097C2 28.3098 2.0001 28.3099 2.00023 28.3099H4.99977C4.9999 28.3099 5 28.3098 5 28.3097V28.3097V28.3097C5 28.3096 5.00007 28.3095 5.00016 28.3095H18.7584C18.7585 28.3095 18.7586 28.3096 18.7586 28.3097V28.3097Z" fill="black"/>
<path d="M11.9428 17.0193L11.9535 15.5193H11.9428V17.0193ZM11.8158 17.0193L11.8158 15.5192L11.805 15.5193L11.8158 17.0193ZM21.7583 26.8099H18.7588V29.8099H21.7583V26.8099ZM11.932 18.5192C16.3553 18.551 20.2586 22.7307 20.2586 28.3097H23.2586C23.2586 21.4658 18.3841 15.5656 11.9535 15.5193L11.932 18.5192ZM11.8158 18.5193H11.9428V15.5193H11.8158V18.5193ZM3.5 28.3097C3.5 22.7307 7.40328 18.551 11.8266 18.5192L11.805 15.5193C5.37443 15.5656 0.5 21.4658 0.5 28.3097H3.5ZM4.99977 26.8099H2.00023V29.8099H4.99977V26.8099ZM5.00016 29.8095H18.7584V26.8095H5.00016V29.8095ZM4.99977 29.8099C5.82833 29.8099 6.5 29.1382 6.5 28.3097H3.5C3.5 27.4814 4.17147 26.8099 4.99977 26.8099V29.8099ZM0.5 28.3097C0.5 29.1387 1.17219 29.8099 2.00023 29.8099V26.8099C2.82802 26.8099 3.5 27.4809 3.5 28.3097H0.5ZM21.7583 29.8099C22.5869 29.8099 23.2586 29.1382 23.2586 28.3097H20.2586C20.2586 27.4814 20.93 26.8099 21.7583 26.8099V29.8099ZM6.5 28.3097C6.5 29.138 5.8285 29.8095 5.00016 29.8095V26.8095C4.17165 26.8095 3.5 27.4812 3.5 28.3097H6.5ZM18.7584 29.8095C17.9315 29.8095 17.2586 29.1394 17.2586 28.3097H20.2586C20.2586 27.4798 19.5855 26.8095 18.7584 26.8095V29.8095ZM17.2586 28.3097C17.2586 29.1387 17.9308 29.8099 18.7588 29.8099V26.8099C19.5866 26.8099 20.2586 27.4809 20.2586 28.3097H17.2586Z" fill="black"/>
</svg>
