<svg width="23" height="33" viewBox="0 0 23 33" fill="none" xmlns="http://www.w3.org/2000/svg">
<path d="M1.5 23V15.3315C1.5 13.1407 1.52711 12.4681 1.77193 11.8838C2.01674 11.2996 2.47723 10.8085 4.03898 9.27212L5.5042 7.83069C7.15881 6.20294 8.29615 5.0884 9.26303 4.36023C10.1952 3.65817 10.7976 3.45089 11.36 3.44522C11.9223 3.43955 12.5287 3.63465 13.4749 4.31778C14.4562 5.02632 15.6158 6.11771 17.3029 7.71177L18.6686 9.00222C20.2845 10.529 20.7614 11.0179 21.0183 11.6065C21.2752 12.195 21.3095 12.8771 21.3306 15.1001L21.4046 22.9196C21.4275 25.3396 21.44 27.0031 21.2833 28.2531C21.1321 29.46 20.8466 30.0517 20.439 30.4631C20.0315 30.8746 19.4425 31.1657 18.2371 31.3283C16.9886 31.4968 15.325 31.5 12.9049 31.5H10C7.60057 31.5 5.9519 31.4968 4.71351 31.3303C3.51828 31.1696 2.93221 30.882 2.52513 30.4749C2.11805 30.0678 1.83038 29.4817 1.66968 28.2865C1.50319 27.0481 1.5 25.3994 1.5 23Z" stroke="black" stroke-width="3" stroke-miterlimit="10"/>
</svg>
