<svg width="26" height="27" viewBox="0 0 26 27" fill="none" xmlns="http://www.w3.org/2000/svg">
<path fill-rule="evenodd" clip-rule="evenodd" d="M15.2229 15.6767C12.2511 18.3978 7.63611 18.1946 4.91501 15.2229C2.19391 12.2511 2.39712 7.63611 5.36888 4.91501C8.34065 2.19391 12.9556 2.39712 15.6767 5.36888C18.3978 8.34065 18.1946 12.9556 15.2229 15.6767ZM15.9638 18.8929C11.8134 21.6366 6.16891 21.0346 2.70243 17.2488C-1.13757 13.0551 -0.850808 6.54243 3.34293 2.70243C7.53667 -1.13757 14.0493 -0.850808 17.8893 3.34293C21.3557 7.12866 21.4593 12.804 18.3617 16.6972L24.6689 23.5855C25.2752 24.2476 25.23 25.276 24.5678 25.8823C23.9056 26.4886 22.8773 26.4433 22.271 25.7811L15.9638 18.8929Z" fill="white"/>
</svg>
