<svg width="116" height="17" viewBox="0 0 116 17" fill="none" xmlns="http://www.w3.org/2000/svg">
<path d="M0.880008 16V0.907999H3.74001V16H0.880008ZM6.84699 16V4.428H9.09099L9.31099 5.968H9.46499C9.72899 5.616 10.037 5.308 10.389 5.044C10.7557 4.76533 11.1663 4.55267 11.621 4.406C12.0903 4.24467 12.6037 4.164 13.161 4.164C13.8943 4.164 14.5397 4.296 15.097 4.56C15.669 4.824 16.1163 5.24933 16.439 5.836C16.7617 6.42267 16.923 7.20733 16.923 8.19V16H14.217V8.674C14.217 8.26333 14.1657 7.926 14.063 7.662C13.975 7.38333 13.8357 7.16333 13.645 7.002C13.469 6.826 13.249 6.70133 12.985 6.628C12.721 6.55467 12.4277 6.518 12.105 6.518C11.621 6.518 11.181 6.63533 10.785 6.87C10.4037 7.10467 10.0957 7.42733 9.86099 7.838C9.64099 8.24867 9.53099 8.72533 9.53099 9.268V16H6.84699ZM22.7526 16.264C22.034 16.264 21.4693 16.1247 21.0586 15.846C20.648 15.5527 20.3546 15.186 20.1786 14.746C20.0173 14.2913 19.9366 13.8293 19.9366 13.36V6.628H18.5506V4.428H20.0026L20.4866 1.194H22.6206V4.428H24.6226V6.628H22.6206V13.096C22.6206 13.404 22.7013 13.646 22.8626 13.822C23.024 13.9833 23.266 14.064 23.5886 14.064H24.6226V15.912C24.476 15.9707 24.2926 16.022 24.0726 16.066C23.8673 16.1247 23.6473 16.1687 23.4126 16.198C23.178 16.242 22.958 16.264 22.7526 16.264ZM31.5846 16.264C30.3526 16.264 29.326 16.0513 28.5046 15.626C27.6833 15.186 27.0673 14.5187 26.6566 13.624C26.246 12.7293 26.0406 11.5927 26.0406 10.214C26.0406 8.82067 26.246 7.684 26.6566 6.804C27.0673 5.90933 27.6833 5.24933 28.5046 4.824C29.326 4.384 30.3526 4.164 31.5846 4.164C32.6993 4.164 33.6306 4.37667 34.3786 4.802C35.1413 5.21267 35.7133 5.85067 36.0946 6.716C36.476 7.58133 36.6666 8.70333 36.6666 10.082V10.874H28.7906C28.82 11.5927 28.93 12.2013 29.1206 12.7C29.3113 13.184 29.6046 13.5507 30.0006 13.8C30.4113 14.0347 30.9466 14.152 31.6066 14.152C31.944 14.152 32.2593 14.108 32.5526 14.02C32.846 13.932 33.1026 13.8 33.3226 13.624C33.5426 13.4333 33.7113 13.1987 33.8286 12.92C33.9606 12.6413 34.0266 12.3187 34.0266 11.952H36.6666C36.6666 12.6853 36.5346 13.3233 36.2706 13.866C36.0213 14.4087 35.662 14.856 35.1926 15.208C34.738 15.56 34.2026 15.824 33.5866 16C32.9706 16.176 32.3033 16.264 31.5846 16.264ZM28.8346 8.982H33.8726C33.8726 8.498 33.814 8.08733 33.6966 7.75C33.594 7.41267 33.44 7.134 33.2346 6.914C33.044 6.694 32.8093 6.54 32.5306 6.452C32.252 6.34933 31.9366 6.298 31.5846 6.298C31.0126 6.298 30.5286 6.39333 30.1326 6.584C29.7513 6.77467 29.458 7.068 29.2526 7.464C29.0473 7.86 28.908 8.366 28.8346 8.982ZM38.9446 16V4.428H41.1886L41.4086 6.254H41.5626C41.7093 5.88733 41.8853 5.55 42.0906 5.242C42.3106 4.91933 42.5893 4.66267 42.9266 4.472C43.264 4.26667 43.6746 4.164 44.1586 4.164C44.3933 4.164 44.606 4.186 44.7966 4.23C45.002 4.274 45.156 4.318 45.2586 4.362V6.892H44.4446C43.99 6.892 43.5866 6.958 43.2346 7.09C42.8826 7.20733 42.582 7.398 42.3326 7.662C42.098 7.926 41.922 8.256 41.8046 8.652C41.6873 9.048 41.6286 9.51 41.6286 10.038V16H38.9446ZM45.5954 16L51.4694 0.907999H55.0774L60.9734 16H57.8714L56.6614 12.788H49.7534L48.5434 16H45.5954ZM50.6554 10.368H55.7374L54.2194 6.276C54.1607 6.12933 54.0874 5.946 53.9994 5.726C53.926 5.49133 53.8454 5.242 53.7574 4.978C53.6694 4.69933 53.5814 4.42067 53.4934 4.142C53.4054 3.86333 53.3247 3.614 53.2514 3.394H53.1414C53.0534 3.68733 52.9434 4.02467 52.8114 4.406C52.694 4.78733 52.5767 5.14667 52.4594 5.484C52.342 5.82133 52.2467 6.08533 52.1734 6.276L50.6554 10.368ZM62.513 16V0.0939989H65.197V16H62.513ZM71.73 16.264C70.6153 16.264 69.706 15.9633 69.002 15.362C68.3126 14.746 67.968 13.7047 67.968 12.238V4.428H70.652V11.754C70.652 12.1647 70.696 12.5093 70.784 12.788C70.8866 13.052 71.026 13.272 71.202 13.448C71.3926 13.6093 71.62 13.7267 71.884 13.8C72.148 13.8733 72.4413 13.91 72.764 13.91C73.248 13.91 73.6806 13.7927 74.062 13.558C74.458 13.3233 74.766 13.0007 74.986 12.59C75.2206 12.1647 75.338 11.688 75.338 11.16V4.428H78.022V16H75.8L75.58 14.46H75.426C75.162 14.812 74.8466 15.1273 74.48 15.406C74.128 15.67 73.7173 15.8753 73.248 16.022C72.7933 16.1833 72.2873 16.264 71.73 16.264ZM80.8821 16V4.428H83.1261L83.3461 5.968H83.5001C83.7495 5.616 84.0355 5.308 84.3581 5.044C84.6808 4.76533 85.0475 4.55267 85.4581 4.406C85.8835 4.24467 86.3455 4.164 86.8441 4.164C87.5188 4.164 88.1201 4.30333 88.6481 4.582C89.1761 4.86067 89.5868 5.32267 89.8801 5.968H90.0341C90.2835 5.616 90.5768 5.308 90.9141 5.044C91.2515 4.76533 91.6401 4.55267 92.0801 4.406C92.5201 4.24467 92.9968 4.164 93.5101 4.164C94.1995 4.164 94.8081 4.28867 95.3361 4.538C95.8641 4.78733 96.2821 5.198 96.5901 5.77C96.8981 6.342 97.0521 7.10467 97.0521 8.058V16H94.3681V8.608C94.3681 8.212 94.3241 7.882 94.2361 7.618C94.1481 7.33933 94.0235 7.12667 93.8621 6.98C93.7155 6.81867 93.5248 6.70133 93.2901 6.628C93.0701 6.55467 92.8281 6.518 92.5641 6.518C92.1388 6.518 91.7575 6.63533 91.4201 6.87C91.0828 7.10467 90.8115 7.42733 90.6061 7.838C90.4155 8.24867 90.3201 8.72533 90.3201 9.268V16H87.6361V8.608C87.6361 8.212 87.5921 7.882 87.5041 7.618C87.4161 7.33933 87.2915 7.12667 87.1301 6.98C86.9835 6.81867 86.7928 6.70133 86.5581 6.628C86.3381 6.55467 86.0961 6.518 85.8321 6.518C85.4068 6.518 85.0181 6.63533 84.6661 6.87C84.3288 7.10467 84.0575 7.42733 83.8521 7.838C83.6615 8.24867 83.5661 8.72533 83.5661 9.268V16H80.8821ZM99.8314 16V4.428H102.075L102.295 5.968H102.449C102.713 5.616 103.021 5.308 103.373 5.044C103.74 4.76533 104.151 4.55267 104.605 4.406C105.075 4.24467 105.588 4.164 106.145 4.164C106.879 4.164 107.524 4.296 108.081 4.56C108.653 4.824 109.101 5.24933 109.423 5.836C109.746 6.42267 109.907 7.20733 109.907 8.19V16H107.201V8.674C107.201 8.26333 107.15 7.926 107.047 7.662C106.959 7.38333 106.82 7.16333 106.629 7.002C106.453 6.826 106.233 6.70133 105.969 6.628C105.705 6.55467 105.412 6.518 105.089 6.518C104.605 6.518 104.165 6.63533 103.769 6.87C103.388 7.10467 103.08 7.42733 102.845 7.838C102.625 8.24867 102.515 8.72533 102.515 9.268V16H99.8314ZM112.679 2.646V0.0939989H115.363V2.646H112.679ZM112.679 16V4.428H115.363V16H112.679Z" fill="white"/>
</svg>
