<svg width="80" height="62" viewBox="0 0 80 62" fill="none" xmlns="http://www.w3.org/2000/svg">
<path fill-rule="evenodd" clip-rule="evenodd" d="M45.0468 30.8455V54.8964C45.0468 58.1255 43.5158 60.2689 40.7321 61.104C38.6444 61.7164 36.8071 61.1875 35.1648 59.8235C33.5481 58.4562 31.9356 57.0889 30.3244 55.7227L30.3234 55.7218L30.3224 55.721L30.317 55.7163L30.3167 55.7161C25.9934 52.0502 21.6796 48.3923 17.3214 44.7639C16.7368 44.2906 15.8739 44.0123 15.0945 43.9844C13.9346 43.938 12.7747 43.94 11.6149 43.9419H11.6147C9.99098 43.9446 8.36721 43.9473 6.74345 43.8174C3.01333 43.539 0.146143 40.4213 0.0626327 36.6912C-0.0208776 32.7105 -0.0208776 28.7021 0.0626327 24.7214C0.17398 20.9356 3.12467 17.8179 6.91047 17.5674C8.44146 17.4755 9.97245 17.4763 11.5034 17.477H11.5035C12.7562 17.4777 14.0088 17.4783 15.2615 17.4282C15.9296 17.4003 16.709 17.1498 17.2379 16.7044C23.1671 11.7495 29.0964 6.73887 34.9699 1.72826C36.9463 0.058051 39.0897 -0.526521 41.5115 0.531276C43.989 1.61691 45.0468 3.67683 45.0468 6.32132V30.8455ZM79.2025 29.76C78.8406 41.2009 74.8321 49.886 66.7038 56.5946C65.2284 57.8194 63.3077 57.7359 62.2221 56.4554C61.0808 55.0914 61.3313 53.1707 62.8345 51.918C70.2947 45.7383 73.7186 37.7491 72.9114 28.1455C72.299 20.6017 68.8194 14.3941 62.9737 9.55051C61.6097 8.4092 61.1364 7.12871 61.6653 5.79255C62.3891 3.87181 64.8109 3.25941 66.5089 4.62341C72.5495 9.49484 76.5302 15.7024 78.2282 23.274C78.6474 25.0306 78.8519 26.8157 79.0161 28.2498L79.0161 28.2501L79.0162 28.2505L79.0163 28.2513C79.081 28.8165 79.1395 29.3272 79.2025 29.76ZM61.3036 47.2971C66.0358 42.7875 68.3463 37.2202 68.5411 31.3466C68.5411 24.4988 65.8966 18.4026 61.3314 14.1435C59.9395 12.863 58.158 12.8074 57.0167 14.0043C55.9032 15.1735 56.0424 16.8994 57.3229 18.2077C64.6718 25.6679 64.6996 35.7727 57.3507 43.1494C56.0146 44.5134 55.9032 46.295 57.0724 47.4641C58.2415 48.6054 59.9674 48.5497 61.3036 47.2971ZM57.7405 30.6784C57.7962 33.1559 57.1003 35.2993 55.792 37.2757C54.8455 38.6675 53.398 39.0572 52.0897 38.25C50.7813 37.4427 50.3638 35.9117 51.2267 34.5199C52.8413 31.931 52.8413 29.4257 51.2267 26.8369C50.3638 25.4451 50.7535 23.9141 52.0618 23.1068C53.3702 22.2995 54.8455 22.6614 55.792 24.0811C57.1281 26.1132 57.824 28.3123 57.7405 30.6784Z" fill="white"/>
</svg>
